<?xml version="1.0" encoding="us-ascii" standalone="no"?><svg xmlns="http://www.w3.org/2000/svg" xmlns:xlink="http://www.w3.org/1999/xlink" contentStyleType="text/css" height="432px" preserveAspectRatio="none" style="width:680px;height:432px;background:#FFFFFF;" version="1.1" viewBox="0 0 680 432" width="680px" zoomAndPan="magnify"><defs/><g><!--cluster am--><g id="cluster_am"><path d="M346.2896,25.606 C352.6945,16.6176 361.6075,15.2005 367.8952,25.7358 C375.1727,13.3378 382.7901,14.9706 391.5057,24.1632 C398.4561,12.6121 405.6628,12.5699 412.8392,23.953 C417.3064,12.338 426.4256,12.3278 433.7989,20.9419 C439.9905,10.733 446.833,11.5859 454.3662,19.4118 C461.6741,8.4004 469.5428,8.3436 478.4313,17.5285 C484.1961,8.0119 493.8255,6.4082 500.252,16.8033 C506.9713,8.6012 514.102,6 520.6031,17.0341 C530.64,6.4964 539.2196,7.3162 545.5854,20.845 C551.9252,13.2395 559.7905,14.5673 564.0698,23.1917 C570.5034,12.951 579.6896,14.4522 585.779,23.5776 C593.7217,13.039 602.4563,11.886 610.4089,23.5665 C617.1716,14.4368 625.7118,15.1919 631.9727,24.1641 C641.9809,14.6558 655.159,15.3679 658,31.4528 C658.4767,30.9819 658.9513,30.9848 659.2918,31.613 C668.7397,36.6086 671.3764,46.6474 660.5612,52.854 C673.6275,61.3849 670.7352,69.3663 659.9362,77.2868 C672.4311,81.2071 673.217,90.827 663.9796,98.8268 C672.7558,104.8826 670.7926,113.5755 662.2579,118.0836 C672.0119,124.2678 672.4691,132.6389 664.0845,140.3136 C671.7954,148.0791 669.1669,154.9631 659.9879,159.0322 C669.5945,164.1041 671.476,173.2879 661.0052,179.3644 C671.2586,193.8847 668.1371,202.4301 651,207.0528 C652.2368,206.9602 652.9402,207.7025 652.5088,208.9421 C647.707,222.2566 639.4669,222.0073 630.5944,212.9252 C623.6333,223.4226 617.6524,221.012 610.9898,212.6154 C605.2649,225.1731 594.7783,227.7893 586.3198,215.3088 C580.4438,226.9452 572.1109,228.3881 564.3877,217.0741 C558.841,226.0029 549.6291,226.7711 543.6872,217.5241 C539.413,229.1893 528.8638,228.3606 522.8385,219.2842 C516.4025,229.1608 508.9111,232.6075 500.6838,221.1439 C494.7506,232.2903 482.9895,231.6469 476.842,221.3825 C469.6428,231.4354 460.7638,230.6948 455.734,219.2521 C447.6438,228.8039 440.7814,225.4149 435.4724,216.2425 C427.9465,225.59 421.3036,225.2769 414.6979,215.2556 C405.9227,225.8541 397.7577,224.8933 392.7443,211.7737 C384.2502,222.6845 377.0304,220.5597 369.946,210.2585 C355.1186,220.3554 343.4108,219.4318 338,200.0528 C339.6568,200.5742 339.9388,202.2103 338.738,203.3679 C325.3013,198.0094 325.9379,186.6224 337.1094,179.5791 C328.3509,172.9124 328.6943,166.0685 338.4327,160.6982 C327.2876,156.3781 326.0315,147.2587 335.1699,139.7754 C325.0295,133.5362 324.1178,127.4396 333.7323,119.7801 C324.6036,112.0309 325.8857,99.4859 337.4965,94.8708 C328.187,89.543 328.9572,79.9507 338.2087,75.2983 C327.407,67.1002 327.7261,60.4149 339.6912,53.7858 C328.6136,42.797 329.5381,30.6384 345,24.4528 C345.954,24.1975 346.4421,24.624 346.2896,25.606 " fill="none" style="stroke:#181818;stroke-width:1.0;"/><text fill="#000000" font-family="sans-serif" font-size="14" font-weight="bold" lengthAdjust="spacing" textLength="162" x="417" y="42.448">access management</text></g><!--cluster pkg--><g id="cluster_pkg"><path d="M185.5,239.0528 L305.5,239.0528 A3.75,3.75 0 0 1 308,241.5528 L315,261.3497 L565.5,261.3497 A2.5,2.5 0 0 1 568,263.8497 L568,333.8428 A2.5,2.5 0 0 1 565.5,336.3428 L185.5,336.3428 A2.5,2.5 0 0 1 183,333.8428 L183,241.5528 A2.5,2.5 0 0 1 185.5,239.0528 " fill="none" style="stroke:#000000;stroke-width:1.5;"/><line style="stroke:#000000;stroke-width:1.5;" x1="183" x2="315" y1="261.3497" y2="261.3497"/><text fill="#000000" font-family="sans-serif" font-size="14" font-weight="bold" lengthAdjust="spacing" textLength="119" x="187" y="254.048">FE api-gateway</text></g><!--entity gs--><g id="elem_gs"><rect fill="#F1F1F1" height="46.2969" rx="2.5" ry="2.5" style="stroke:#181818;stroke-width:0.5;" width="110" x="346" y="51.4528"/><rect fill="#F1F1F1" height="10" style="stroke:#181818;stroke-width:0.5;" width="15" x="436" y="56.4528"/><rect fill="#F1F1F1" height="2" style="stroke:#181818;stroke-width:0.5;" width="4" x="434" y="58.4528"/><rect fill="#F1F1F1" height="2" style="stroke:#181818;stroke-width:0.5;" width="4" x="434" y="62.4528"/><text fill="#000000" font-family="sans-serif" font-size="14" lengthAdjust="spacing" textLength="70" x="361" y="84.448">geoserver</text></g><!--entity fuu--><g id="elem_fuu"><rect fill="#F1F1F1" height="46.2969" rx="2.5" ry="2.5" style="stroke:#181818;stroke-width:0.5;" width="62" x="491" y="51.4528"/><rect fill="#F1F1F1" height="10" style="stroke:#181818;stroke-width:0.5;" width="15" x="533" y="56.4528"/><rect fill="#F1F1F1" height="2" style="stroke:#181818;stroke-width:0.5;" width="4" x="531" y="58.4528"/><rect fill="#F1F1F1" height="2" style="stroke:#181818;stroke-width:0.5;" width="4" x="531" y="62.4528"/><text fill="#000000" font-family="sans-serif" font-size="14" lengthAdjust="spacing" textLength="22" x="506" y="84.448">fuu</text></g><!--entity bar--><g id="elem_bar"><rect fill="#F1F1F1" height="46.2969" rx="2.5" ry="2.5" style="stroke:#181818;stroke-width:0.5;" width="62" x="588" y="51.4528"/><rect fill="#F1F1F1" height="10" style="stroke:#181818;stroke-width:0.5;" width="15" x="630" y="56.4528"/><rect fill="#F1F1F1" height="2" style="stroke:#181818;stroke-width:0.5;" width="4" x="628" y="58.4528"/><rect fill="#F1F1F1" height="2" style="stroke:#181818;stroke-width:0.5;" width="4" x="628" y="62.4528"/><text fill="#000000" font-family="sans-serif" font-size="14" lengthAdjust="spacing" textLength="22" x="603" y="84.448">bar</text></g><!--entity xtf--><g id="elem_xtf"><path d="M388,165.2528 L388,196.5497 A2.5,2.5 0 0 0 390.5,199.0497 L575.5,199.0497 A2.5,2.5 0 0 0 578,196.5497 L578,172.7528 L568,162.7528 L390.5,162.7528 A2.5,2.5 0 0 0 388,165.2528 " fill="#F1F1F1" style="stroke:#181818;stroke-width:0.5;"/><path d="M568,162.7528 L568,170.2528 A2.5,2.5 0 0 0 570.5,172.7528 L578,172.7528 " fill="#F1F1F1" style="stroke:#181818;stroke-width:0.5;"/><text fill="#000000" font-family="sans-serif" font-size="14" lengthAdjust="spacing" textLength="170" x="398" y="185.748">gateway_access_conf.xtf</text></g><!--entity gate--><g id="elem_gate"><rect fill="#F1F1F1" height="46.2969" rx="2.5" ry="2.5" style="stroke:#181818;stroke-width:0.5;" width="122" x="199" y="274.0528"/><rect fill="#F1F1F1" height="10" style="stroke:#181818;stroke-width:0.5;" width="15" x="301" y="279.0528"/><rect fill="#F1F1F1" height="2" style="stroke:#181818;stroke-width:0.5;" width="4" x="299" y="281.0528"/><rect fill="#F1F1F1" height="2" style="stroke:#181818;stroke-width:0.5;" width="4" x="299" y="285.0528"/><text fill="#000000" font-family="sans-serif" font-size="14" lengthAdjust="spacing" textLength="82" x="214" y="307.048">api-gateway</text></g><!--entity gateconf--><g id="elem_gateconf"><path d="M356,281.5528 L356,312.8497 A2.5,2.5 0 0 0 358.5,315.3497 L549.5,315.3497 A2.5,2.5 0 0 0 552,312.8497 L552,289.0528 L542,279.0528 L358.5,279.0528 A2.5,2.5 0 0 0 356,281.5528 " fill="#F1F1F1" style="stroke:#181818;stroke-width:0.5;"/><path d="M542,279.0528 L542,286.5528 A2.5,2.5 0 0 0 544.5,289.0528 L552,289.0528 " fill="#F1F1F1" style="stroke:#181818;stroke-width:0.5;"/><text fill="#000000" font-family="sans-serif" font-size="14" lengthAdjust="spacing" textLength="176" x="366" y="302.048">gateway_access_conf.xyz</text></g><!--entity clients--><g id="elem_clients"><path d="M156.8533,167.1386 C160.0521,161.2153 165.6939,160.5096 169.8979,165.9887 C173.612,160.3384 177.9812,158.4987 182.9022,164.66 C187.2196,160.2261 190.6713,160.6242 193.9297,165.8667 C197.6819,157.6329 202.2649,157.7212 207.9577,163.9896 C212.1458,157.4229 216.5123,157.8557 220.438,164.2423 C222.3975,158.259 227.6098,158.2279 231.1926,162.548 C236.7838,157.5306 241.5571,157.0369 244.8156,164.9967 C248.6362,159.435 252.9795,159.6061 257.0068,164.7615 C261.0437,160.3009 265.3074,160.1911 268.5342,165.6983 C272.1982,158.7692 278.5159,159.9234 281.937,165.9497 C286.1672,159.1043 292.2806,160.5285 295.1554,167.2684 C299.2631,161.2192 303.5598,160.5425 307.9479,166.9811 C314.6167,170.1804 317.2557,177.4745 309.772,182.3531 C315.6556,187.713 314.7229,193.1522 307.6451,196.5736 C303.394,202.2913 298.4902,204.2076 293.9055,196.9262 C291.0822,203.0007 287.083,203.8813 282.6943,198.4517 C278.887,206.0348 274.269,206.1813 268.8973,200.0223 C265.3225,204.3755 260.7172,204.0047 258.0733,198.9511 C255.1687,206.175 248.7903,205.4349 245.1337,199.7021 C241.1683,206.3294 236.303,206.933 231.1241,201.0625 C227.8702,206.8619 222.221,206.3 219.1322,200.886 C215.3748,206.4591 210.4403,205.2991 207.7193,199.816 C203.4581,205.5375 198.3121,205.7555 194.2121,199.6322 C189.3398,204.3852 185.7166,203.904 182.1624,198.1243 C178.7245,203.9252 172.2819,204.4751 168.5959,198.4079 C165.7637,203.0872 160.7033,202.8904 158.1077,198.1447 C147.9415,197.5825 142.9029,190.3959 149.4525,181.2634 C145.5276,173.6265 147.8323,167.9926 156.8533,167.1386 " fill="#F1F1F1" style="stroke:#181818;stroke-width:0.5;"/><text fill="#000000" font-family="sans-serif" font-size="14" lengthAdjust="spacing" textLength="136" x="163" y="185.748">Zugreifende Clients</text></g><!--entity docs--><g id="elem_docs"><rect fill="#F1F1F1" height="46.2969" rx="2.5" ry="2.5" style="stroke:#181818;stroke-width:0.5;" width="148" x="7" y="380.3428"/><rect fill="#F1F1F1" height="10" style="stroke:#181818;stroke-width:0.5;" width="15" x="135" y="385.3428"/><rect fill="#F1F1F1" height="2" style="stroke:#181818;stroke-width:0.5;" width="4" x="133" y="387.3428"/><rect fill="#F1F1F1" height="2" style="stroke:#181818;stroke-width:0.5;" width="4" x="133" y="391.3428"/><text fill="#000000" font-family="sans-serif" font-size="14" lengthAdjust="spacing" textLength="108" x="22" y="413.338">geo.so.ch/docs</text></g><!--entity geo--><g id="elem_geo"><rect fill="#F1F1F1" height="46.2969" rx="2.5" ry="2.5" style="stroke:#181818;stroke-width:0.5;" width="140" x="190" y="380.3428"/><rect fill="#F1F1F1" height="10" style="stroke:#181818;stroke-width:0.5;" width="15" x="310" y="385.3428"/><rect fill="#F1F1F1" height="2" style="stroke:#181818;stroke-width:0.5;" width="4" x="308" y="387.3428"/><rect fill="#F1F1F1" height="2" style="stroke:#181818;stroke-width:0.5;" width="4" x="308" y="391.3428"/><text fill="#000000" font-family="sans-serif" font-size="14" lengthAdjust="spacing" textLength="100" x="205" y="413.338">files.geo.so.ch</text></g><!--entity rep--><g id="elem_rep"><rect fill="#F1F1F1" height="46.2969" rx="2.5" ry="2.5" style="stroke:#181818;stroke-width:0.5;" width="193" x="365.5" y="380.3428"/><rect fill="#F1F1F1" height="10" style="stroke:#181818;stroke-width:0.5;" width="15" x="538.5" y="385.3428"/><rect fill="#F1F1F1" height="2" style="stroke:#181818;stroke-width:0.5;" width="4" x="536.5" y="387.3428"/><rect fill="#F1F1F1" height="2" style="stroke:#181818;stroke-width:0.5;" width="4" x="536.5" y="391.3428"/><text fill="#000000" font-family="sans-serif" font-size="14" lengthAdjust="spacing" textLength="153" x="380.5" y="413.338">geo.so.ch/documents</text></g><!--link gs to xtf--><g id="link_gs_xtf"><path d="M418.79,98.2328 C433.96,117.5228 451.7434,140.1347 465.5934,157.7647 " fill="none" id="gs-to-xtf" style="stroke:#181818;stroke-width:1.0;"/><polygon fill="#181818" points="469.3,162.4828,466.8856,152.9345,466.2112,158.551,460.5947,157.8766,469.3,162.4828" style="stroke:#181818;stroke-width:1.0;"/></g><!--link fuu to xtf--><g id="link_fuu_xtf"><path d="M513.54,98.2328 C506.32,117.5228 498.2136,139.2337 491.6136,156.8637 " fill="none" id="fuu-to-xtf" style="stroke:#181818;stroke-width:1.0;"/><polygon fill="#181818" points="489.51,162.4828,496.4115,155.4565,491.263,157.8002,488.9193,152.6517,489.51,162.4828" style="stroke:#181818;stroke-width:1.0;"/></g><!--link bar to xtf--><g id="link_bar_xtf"><path d="M589.49,98.2328 C564.33,117.5228 533.4604,141.2007 510.4804,158.8307 " fill="none" id="bar-to-xtf" style="stroke:#181818;stroke-width:1.0;"/><polygon fill="#181818" points="505.72,162.4828,515.2954,160.1782,509.687,159.4394,510.4259,153.831,505.72,162.4828" style="stroke:#181818;stroke-width:1.0;"/></g><!--link clients to gate--><g id="link_clients_gate"><path d="M236.73,204.4828 C241.81,224.5228 249.2,253.6428 254.28,273.6628 " fill="none" id="clients-gate" style="stroke:#181818;stroke-width:1.0;"/></g><!--link xtf to gateconf--><g id="link_xtf_gateconf"><path d="M478.6,199.2628 C473.14,220.7428 465.3955,251.2971 459.9255,272.8571 " fill="none" id="xtf-to-gateconf" style="stroke:#181818;stroke-width:1.0;"/><polygon fill="#181818" points="458.45,278.6728,464.5404,270.9329,459.6796,273.8264,456.7861,268.9656,458.45,278.6728" style="stroke:#181818;stroke-width:1.0;"/></g><!--link gate to docs--><g id="link_gate_docs"><path d="M221.16,320.8328 C191.14,338.3228 149.77,362.4228 119.76,379.9028 " fill="none" id="gate-docs" style="stroke:#181818;stroke-width:1.0;"/></g><!--link gate to geo--><g id="link_gate_geo"><path d="M260,320.8328 C260,338.3228 260,362.4228 260,379.9028 " fill="none" id="gate-geo" style="stroke:#181818;stroke-width:1.0;"/></g><!--link gate to rep--><g id="link_gate_rep"><path d="M297,320.7028 C310.12,328.4528 325.09,337.0128 339,344.3428 C362.51,356.7428 389.11,369.4728 411.54,379.8428 " fill="none" id="gate-rep" style="stroke:#181818;stroke-width:1.0;"/></g><!--SRC=[VP1DJiGm38NtFeNLVSiDs20u19kHSPrGJVEZf0K6nDs94rfrHe9L_PBNzpw7vx2Es16pv8oEF5bnufSEAICv_0943Yu6NmxHIiYItYJfhSrNTsPTh_GB9IW7Pfe5BItoJfTJgpbny6RuM8ocb8_QRCQ-lwyADUgWIj2klW6u4J-lDiban8-23_DK6dDbvZO3HE9pMGQxfqUaEFM_3DKKp_Pci-xMelE_-9VFpQQwaTNg0jl-1brHoNSJ70hBMmuv3FnwDmPkx3eSBLgUXztOk2JycRAw_HcIH03jLPgQkmaDsERY-W40]--></g></svg>