<?xml version="1.0" encoding="us-ascii" standalone="no"?><svg xmlns="http://www.w3.org/2000/svg" xmlns:xlink="http://www.w3.org/1999/xlink" contentStyleType="text/css" height="271px" preserveAspectRatio="none" style="width:564px;height:271px;background:#FFFFFF;" version="1.1" viewBox="0 0 564 271" width="564px" zoomAndPan="magnify"><defs/><g><!--cluster gs--><g id="cluster_gs"><polygon fill="none" points="181,83.3,191,73.3,339,73.3,339,165.59,329,175.59,181,175.59,181,83.3" style="stroke:#181818;stroke-width:1.0;"/><line style="stroke:#181818;stroke-width:1.0;" x1="329" x2="339" y1="83.3" y2="73.3"/><line style="stroke:#181818;stroke-width:1.0;" x1="181" x2="329" y1="83.3" y2="83.3"/><line style="stroke:#181818;stroke-width:1.0;" x1="329" x2="329" y1="83.3" y2="175.59"/><text fill="#000000" font-family="sans-serif" font-size="14" font-weight="bold" lengthAdjust="spacing" textLength="82" x="215" y="99.2951">geoserver</text></g><!--entity bc--><g id="elem_bc"><rect fill="#F1F1F1" height="46.2969" rx="2.5" ry="2.5" style="stroke:#181818;stroke-width:0.5;" width="98" x="211" y="113.3"/><rect fill="#F1F1F1" height="10" style="stroke:#181818;stroke-width:0.5;" width="15" x="289" y="118.3"/><rect fill="#F1F1F1" height="2" style="stroke:#181818;stroke-width:0.5;" width="4" x="287" y="120.3"/><rect fill="#F1F1F1" height="2" style="stroke:#181818;stroke-width:0.5;" width="4" x="287" y="124.3"/><text fill="#000000" font-family="sans-serif" font-size="14" lengthAdjust="spacing" textLength="58" x="226" y="146.2951">bouncer</text></g><!--entity gate--><g id="elem_gate"><rect fill="#F1F1F1" height="46.2969" rx="2.5" ry="2.5" style="stroke:#181818;stroke-width:0.5;" width="122" x="199" y="7"/><rect fill="#F1F1F1" height="10" style="stroke:#181818;stroke-width:0.5;" width="15" x="301" y="12"/><rect fill="#F1F1F1" height="2" style="stroke:#181818;stroke-width:0.5;" width="4" x="299" y="14"/><rect fill="#F1F1F1" height="2" style="stroke:#181818;stroke-width:0.5;" width="4" x="299" y="18"/><text fill="#000000" font-family="sans-serif" font-size="14" lengthAdjust="spacing" textLength="82" x="214" y="39.9951">api-gateway</text></g><!--entity docs--><g id="elem_docs"><rect fill="#F1F1F1" height="46.2969" rx="2.5" ry="2.5" style="stroke:#181818;stroke-width:0.5;" width="148" x="7" y="219.59"/><rect fill="#F1F1F1" height="10" style="stroke:#181818;stroke-width:0.5;" width="15" x="135" y="224.59"/><rect fill="#F1F1F1" height="2" style="stroke:#181818;stroke-width:0.5;" width="4" x="133" y="226.59"/><rect fill="#F1F1F1" height="2" style="stroke:#181818;stroke-width:0.5;" width="4" x="133" y="230.59"/><text fill="#000000" font-family="sans-serif" font-size="14" lengthAdjust="spacing" textLength="108" x="22" y="252.5851">geo.so.ch/docs</text></g><!--entity geo--><g id="elem_geo"><rect fill="#F1F1F1" height="46.2969" rx="2.5" ry="2.5" style="stroke:#181818;stroke-width:0.5;" width="140" x="190" y="219.59"/><rect fill="#F1F1F1" height="10" style="stroke:#181818;stroke-width:0.5;" width="15" x="310" y="224.59"/><rect fill="#F1F1F1" height="2" style="stroke:#181818;stroke-width:0.5;" width="4" x="308" y="226.59"/><rect fill="#F1F1F1" height="2" style="stroke:#181818;stroke-width:0.5;" width="4" x="308" y="230.59"/><text fill="#000000" font-family="sans-serif" font-size="14" lengthAdjust="spacing" textLength="100" x="205" y="252.5851">files.geo.so.ch</text></g><!--entity rep--><g id="elem_rep"><rect fill="#F1F1F1" height="46.2969" rx="2.5" ry="2.5" style="stroke:#181818;stroke-width:0.5;" width="193" x="365.5" y="219.59"/><rect fill="#F1F1F1" height="10" style="stroke:#181818;stroke-width:0.5;" width="15" x="538.5" y="224.59"/><rect fill="#F1F1F1" height="2" style="stroke:#181818;stroke-width:0.5;" width="4" x="536.5" y="226.59"/><rect fill="#F1F1F1" height="2" style="stroke:#181818;stroke-width:0.5;" width="4" x="536.5" y="230.59"/><text fill="#000000" font-family="sans-serif" font-size="14" lengthAdjust="spacing" textLength="153" x="380.5" y="252.5851">geo.so.ch/documents</text></g><!--link gate to bc--><g id="link_gate_bc"><path d="M260,53.78 C260,71.27 260,95.38 260,112.86 " fill="none" id="gate-bc" style="stroke:#181818;stroke-width:1.0;"/></g><!--link bc to docs--><g id="link_bc_docs"><path d="M221.16,160.08 C191.14,177.57 149.77,201.67 119.76,219.15 " fill="none" id="bc-docs" style="stroke:#181818;stroke-width:1.0;"/></g><!--link bc to geo--><g id="link_bc_geo"><path d="M260,160.08 C260,177.57 260,201.67 260,219.15 " fill="none" id="bc-geo" style="stroke:#181818;stroke-width:1.0;"/></g><!--link bc to rep--><g id="link_bc_rep"><path d="M303.83,160.08 C337.71,177.57 384.39,201.67 418.25,219.15 " fill="none" id="bc-rep" style="stroke:#181818;stroke-width:1.0;"/></g><!--SRC=[TOvB3i8m34JtFeMLVSAP4jUKIcqSnIq88UvEd4Y53RkdyNnCiXN9d7TqiIn-ZZi_ujDXL3G6o38npYpAzSwrwuelGAGpcUJ8D6w9u0tmFRcM32g1RfT9I7klmQ_bkgoiuJIERPQ_BSVMj55LkG3Od-YzRISow0C3hMTGitu0]--></g></svg>