<?xml version="1.0" encoding="us-ascii" standalone="no"?><svg xmlns="http://www.w3.org/2000/svg" xmlns:xlink="http://www.w3.org/1999/xlink" contentStyleType="text/css" height="271px" preserveAspectRatio="none" style="width:564px;height:271px;background:#FFFFFF;" version="1.1" viewBox="0 0 564 271" width="564px" zoomAndPan="magnify"><defs/><g><!--cluster gs--><g id="cluster_gs"><polygon fill="none" points="181,83.3,191,73.3,339,73.3,339,165.59,329,175.59,181,175.59,181,83.3" style="stroke:#181818;stroke-width:1.0;"/><line style="stroke:#181818;stroke-width:1.0;" x1="329" x2="339" y1="83.3" y2="73.3"/><line style="stroke:#181818;stroke-width:1.0;" x1="181" x2="329" y1="83.3" y2="83.3"/><line style="stroke:#181818;stroke-width:1.0;" x1="329" x2="329" y1="83.3" y2="175.59"/><text fill="#000000" font-family="sans-serif" font-size="14" font-weight="bold" lengthAdjust="spacing" textLength="82" x="215" y="99.2951">geoserver</text></g><!--entity plug--><g id="elem_plug"><rect fill="#F1F1F1" height="46.2969" rx="2.5" ry="2.5" style="stroke:#181818;stroke-width:0.5;" width="82" x="219" y="113.3"/><rect fill="#F1F1F1" height="10" style="stroke:#181818;stroke-width:0.5;" width="15" x="281" y="118.3"/><rect fill="#F1F1F1" height="2" style="stroke:#181818;stroke-width:0.5;" width="4" x="279" y="120.3"/><rect fill="#F1F1F1" height="2" style="stroke:#181818;stroke-width:0.5;" width="4" x="279" y="124.3"/><text fill="#000000" font-family="sans-serif" font-size="14" lengthAdjust="spacing" textLength="42" x="234" y="146.2951">plugin</text></g><!--entity gate--><g id="elem_gate"><rect fill="#F1F1F1" height="46.2969" rx="2.5" ry="2.5" style="stroke:#181818;stroke-width:0.5;" width="122" x="199" y="7"/><rect fill="#F1F1F1" height="10" style="stroke:#181818;stroke-width:0.5;" width="15" x="301" y="12"/><rect fill="#F1F1F1" height="2" style="stroke:#181818;stroke-width:0.5;" width="4" x="299" y="14"/><rect fill="#F1F1F1" height="2" style="stroke:#181818;stroke-width:0.5;" width="4" x="299" y="18"/><text fill="#000000" font-family="sans-serif" font-size="14" lengthAdjust="spacing" textLength="82" x="214" y="39.9951">api-gateway</text></g><!--entity docs--><g id="elem_docs"><rect fill="#F1F1F1" height="46.2969" rx="2.5" ry="2.5" style="stroke:#181818;stroke-width:0.5;" width="148" x="7" y="219.59"/><rect fill="#F1F1F1" height="10" style="stroke:#181818;stroke-width:0.5;" width="15" x="135" y="224.59"/><rect fill="#F1F1F1" height="2" style="stroke:#181818;stroke-width:0.5;" width="4" x="133" y="226.59"/><rect fill="#F1F1F1" height="2" style="stroke:#181818;stroke-width:0.5;" width="4" x="133" y="230.59"/><text fill="#000000" font-family="sans-serif" font-size="14" lengthAdjust="spacing" textLength="108" x="22" y="252.5851">geo.so.ch/docs</text></g><!--entity geo--><g id="elem_geo"><rect fill="#F1F1F1" height="46.2969" rx="2.5" ry="2.5" style="stroke:#181818;stroke-width:0.5;" width="140" x="190" y="219.59"/><rect fill="#F1F1F1" height="10" style="stroke:#181818;stroke-width:0.5;" width="15" x="310" y="224.59"/><rect fill="#F1F1F1" height="2" style="stroke:#181818;stroke-width:0.5;" width="4" x="308" y="226.59"/><rect fill="#F1F1F1" height="2" style="stroke:#181818;stroke-width:0.5;" width="4" x="308" y="230.59"/><text fill="#000000" font-family="sans-serif" font-size="14" lengthAdjust="spacing" textLength="100" x="205" y="252.5851">files.geo.so.ch</text></g><!--entity rep--><g id="elem_rep"><rect fill="#F1F1F1" height="46.2969" rx="2.5" ry="2.5" style="stroke:#181818;stroke-width:0.5;" width="193" x="365.5" y="219.59"/><rect fill="#F1F1F1" height="10" style="stroke:#181818;stroke-width:0.5;" width="15" x="538.5" y="224.59"/><rect fill="#F1F1F1" height="2" style="stroke:#181818;stroke-width:0.5;" width="4" x="536.5" y="226.59"/><rect fill="#F1F1F1" height="2" style="stroke:#181818;stroke-width:0.5;" width="4" x="536.5" y="230.59"/><text fill="#000000" font-family="sans-serif" font-size="14" lengthAdjust="spacing" textLength="153" x="380.5" y="252.5851">geo.so.ch/documents</text></g><!--link gate to plug--><g id="link_gate_plug"><path d="M260,53.78 C260,71.27 260,95.38 260,112.86 " fill="none" id="gate-plug" style="stroke:#181818;stroke-width:1.0;"/></g><!--link plug to docs--><g id="link_plug_docs"><path d="M221.16,160.08 C191.14,177.57 149.77,201.67 119.76,219.15 " fill="none" id="plug-docs" style="stroke:#181818;stroke-width:1.0;"/></g><!--link plug to geo--><g id="link_plug_geo"><path d="M260,160.08 C260,177.57 260,201.67 260,219.15 " fill="none" id="plug-geo" style="stroke:#181818;stroke-width:1.0;"/></g><!--link plug to rep--><g id="link_plug_rep"><path d="M301.37,158.8 C335.42,176.38 383.55,201.24 418.24,219.15 " fill="none" id="plug-rep" style="stroke:#181818;stroke-width:1.0;"/></g><!--SRC=[TKv93iCW3Bpx5HPtw9iGSIbIWX7Eeghgtuj1INlfnPgnPt7WfN2clABn9TdeLphyqw0NL0oGUIACn49rfzhtWYz039Upp5jCMK-Au0tmlPbcTS8kF6uJ1-d12dubzpIJk4iuoed_fcnBsuseIWL07qLhHxiE9Rta99fsucRv0000]--></g></svg>